<svg width="44" height="47" viewBox="0 0 44 47" fill="none" xmlns="http://www.w3.org/2000/svg">
<g clip-path="url(#clip0_222_689)">
<path d="M44 23.5C44 10.5213 34.1503 0 22 0C9.84973 0 0 10.5213 0 23.5C0 35.2295 8.04512 44.9516 18.5625 46.7145V30.293H12.9766V23.5H18.5625V18.3227C18.5625 12.433 21.8469 9.17969 26.8722 9.17969C29.2793 9.17969 31.7969 9.63867 31.7969 9.63867V15.4219H29.0227C26.2898 15.4219 25.4375 17.2333 25.4375 19.0917V23.5H31.5391L30.5637 30.293H25.4375V46.7145C35.955 44.9516 44 35.2295 44 23.5Z" fill="#1877F2"/>
<path d="M30.5637 30.293L31.5391 23.5H25.4375V19.0917C25.4375 17.2333 26.2897 15.4219 29.0227 15.4219H31.7969V9.63867C31.7969 9.63867 29.2792 9.17969 26.8722 9.17969C21.8469 9.17969 18.5625 12.433 18.5625 18.3227V23.5H12.9766V30.293H18.5625V46.7145C19.6825 46.9022 20.8306 47 22 47C23.1694 47 24.3174 46.9022 25.4375 46.7145V30.293H30.5637Z" fill="white"/>
</g>
<defs>
<clipPath id="clip0_222_689">
<rect width="44" height="47" fill="white"/>
</clipPath>
</defs>
</svg>
