<svg width="44" height="47" viewBox="0 0 44 47" fill="none" xmlns="http://www.w3.org/2000/svg">
<g clip-path="url(#clip0_222_680)">
<path fill-rule="evenodd" clip-rule="evenodd" d="M36.3835 10.9558C36.3835 12.5134 35.2014 13.7758 33.7435 13.7758C32.2857 13.7758 31.1035 12.5134 31.1035 10.9558C31.1035 9.39816 32.2857 8.13577 33.7435 8.13577C35.2017 8.13577 36.3835 9.39816 36.3835 10.9558ZM22 31.3332C17.9499 31.3332 14.6668 27.8262 14.6668 23.5C14.6668 19.1738 17.9499 15.6668 22 15.6668C26.0501 15.6668 29.3332 19.1738 29.3332 23.5C29.3332 27.8262 26.0501 31.3332 22 31.3332ZM22 11.4324C15.7606 11.4324 10.7027 16.8352 10.7027 23.5C10.7027 30.1648 15.7606 35.5676 22 35.5676C28.2394 35.5676 33.2973 30.1648 33.2973 23.5C33.2973 16.8352 28.2394 11.4324 22 11.4324ZM22 4.23441C27.8743 4.23441 28.5701 4.25827 30.8897 4.37137C33.0347 4.47602 34.1997 4.85863 34.9748 5.18065C36.0016 5.60695 36.7345 6.11624 37.5045 6.93874C38.2745 7.76087 38.7513 8.54372 39.1504 9.64088C39.4515 10.4689 39.81 11.7133 39.908 14.0045C40.0139 16.4827 40.0362 17.2259 40.0362 23.5007C40.0362 29.7756 40.0139 30.5188 39.908 32.9966C39.81 35.2878 39.4518 36.5322 39.1504 37.3602C38.7513 38.457 38.2745 39.2399 37.5045 40.0624C36.7348 40.8849 36.002 41.3941 34.9748 41.8205C34.1997 42.1421 33.0347 42.5251 30.8897 42.6297C28.5701 42.7428 27.8743 42.7667 22 42.7667C16.1253 42.7667 15.4296 42.7428 13.1099 42.6297C10.9649 42.5251 9.79997 42.1425 9.02481 41.8205C7.99803 41.3941 7.26516 40.8849 6.49516 40.0624C5.7255 39.2402 5.24838 38.4574 4.84928 37.3602C4.54816 36.5322 4.18962 35.2878 4.09166 32.9966C3.98578 30.5184 3.96344 29.7752 3.96344 23.5007C3.96344 17.2259 3.98578 16.4827 4.09166 14.0045C4.18962 11.7133 4.54781 10.4689 4.84928 9.64088C5.24838 8.54409 5.72516 7.76124 6.49516 6.93874C7.26481 6.11624 7.99769 5.60695 9.02481 5.18065C9.79997 4.85899 10.9649 4.47602 13.1099 4.37137C15.4299 4.25827 16.1257 4.23441 22 4.23441ZM22 0C16.0253 0 15.2759 0.0271719 12.9295 0.141367C10.5878 0.255562 8.98837 0.652859 7.58931 1.23375C6.14247 1.8341 4.91562 2.63787 3.69256 3.94433C2.4695 5.25078 1.71703 6.56127 1.155 8.10677C0.611187 9.60159 0.23925 11.3097 0.132344 13.811C0.0254375 16.3174 0 17.1179 0 23.5C0 29.8821 0.0254375 30.6826 0.132344 33.189C0.23925 35.6903 0.611187 37.3984 1.155 38.8932C1.71703 40.4387 2.4695 41.7492 3.69256 43.0557C4.91562 44.3621 6.14247 45.1655 7.58931 45.7662C8.98872 46.3471 10.5878 46.7444 12.9295 46.8586C15.2759 46.9728 16.0253 47 22 47C27.9747 47 28.7241 46.9728 31.0705 46.8586C33.4122 46.7444 35.0113 46.3471 36.4107 45.7662C37.8575 45.1655 39.0844 44.3621 40.3074 43.0557C41.5305 41.7492 42.2826 40.4387 42.845 38.8932C43.3888 37.3984 43.7607 35.6903 43.8677 33.189C43.9746 30.6826 44 29.8821 44 23.5C44 17.1179 43.9746 16.3174 43.8677 13.811C43.7607 11.3097 43.3888 9.60159 42.845 8.10677C42.2826 6.56127 41.5305 5.25078 40.3074 3.94433C39.0844 2.63787 37.8575 1.83447 36.4107 1.23375C35.0113 0.652859 33.4122 0.255562 31.0705 0.141367C28.7241 0.0271719 27.9747 0 22 0Z" fill="url(#paint0_radial_222_680)"/>
</g>
<defs>
<radialGradient id="paint0_radial_222_680" cx="0" cy="0" r="1" gradientUnits="userSpaceOnUse" gradientTransform="translate(6.56944 47.1632) scale(56.221 60.0542)">
<stop stop-color="#FFB140"/>
<stop offset="0.2559" stop-color="#FF5445"/>
<stop offset="0.599" stop-color="#FC2B82"/>
<stop offset="1" stop-color="#8E40B7"/>
</radialGradient>
<clipPath id="clip0_222_680">
<rect width="44" height="47" fill="white"/>
</clipPath>
</defs>
</svg>
