<svg width="44" height="47" viewBox="0 0 44 47" fill="none" xmlns="http://www.w3.org/2000/svg">
<g clip-path="url(#clip0_222_685)">
<path d="M38.5 47H5.5C2.464 47 0 44.368 0 41.125V5.875C0 2.632 2.464 0 5.5 0H38.5C41.536 0 44 2.632 44 5.875V41.125C44 44.368 41.536 47 38.5 47Z" fill="#1DA1F2"/>
<path d="M16.896 35.438C27.269 35.438 32.945 26.2495 32.945 18.2948C32.945 18.0363 32.945 17.7778 32.934 17.5193C34.034 16.6733 34.991 15.604 35.75 14.3938C34.738 14.8755 33.649 15.1928 32.505 15.3455C33.671 14.6053 34.562 13.4185 34.991 12.0085C33.902 12.7018 32.692 13.1953 31.405 13.4655C30.371 12.2905 28.908 11.562 27.291 11.562C24.178 11.562 21.648 14.2645 21.648 17.5898C21.648 18.0598 21.703 18.518 21.791 18.9645C17.105 18.7178 12.947 16.309 10.164 12.6665C9.67999 13.5595 9.40499 14.5935 9.40499 15.698C9.40499 17.7895 10.406 19.6343 11.913 20.7153C10.989 20.68 10.12 20.4098 9.36099 19.9633V20.0455C9.36099 22.9595 11.308 25.4035 13.882 25.9558C13.409 26.0968 12.914 26.1673 12.397 26.1673C12.034 26.1673 11.682 26.132 11.341 26.0615C12.056 28.4585 14.146 30.1975 16.61 30.2445C14.674 31.866 12.243 32.8295 9.60299 32.8295C9.15199 32.8295 8.70099 32.806 8.26099 32.7473C10.747 34.4393 13.717 35.438 16.896 35.438Z" fill="white"/>
</g>
<defs>
<clipPath id="clip0_222_685">
<rect width="44" height="47" fill="white"/>
</clipPath>
</defs>
</svg>
